<?xml version="1.0" standalone="no"?>
<!DOCTYPE svg PUBLIC "-//W3C//DTD SVG 20010904//EN"
 "http://www.w3.org/TR/2001/REC-SVG-20010904/DTD/svg10.dtd">
<svg version="1.0" xmlns="http://www.w3.org/2000/svg"
 width="74.000000pt" height="74.000000pt" viewBox="0 0 74.000000 74.000000"
 preserveAspectRatio="xMidYMid meet">
<metadata>
Created by potrace 1.14, written by Peter Selinger 2001-2017
</metadata>
<g transform="translate(0.000000,74.000000) scale(0.100000,-0.100000)"
fill="#000000" stroke="none">
<path d="M251 719 c-89 -31 -163 -96 -207 -181 -35 -69 -32 -81 29 -111 93
-45 99 -45 121 10 65 163 121 244 195 283 l36 20 -60 -2 c-33 0 -84 -9 -114
-19z"/>
<path d="M588 622 c4 -53 -11 -80 -46 -87 -36 -7 -52 5 -52 37 0 71 -48 90
-100 39 -27 -26 -119 -209 -120 -238 0 -18 80 -26 189 -20 147 9 276 40 276
67 2 58 -77 202 -130 236 -19 13 -20 11 -17 -34z"/>
<path d="M7 332 c6 -49 32 -124 53 -152 l17 -22 16 38 c8 22 23 56 31 77 l16
38 -47 20 c-97 42 -91 42 -86 1z"/>
<path d="M675 304 c-27 -7 -68 -17 -90 -21 -51 -10 -292 -10 -326 -1 -26 8
-28 5 -69 -91 -23 -55 -39 -104 -35 -110 3 -6 28 -22 54 -35 172 -88 391 -19
484 152 22 40 46 124 36 121 -2 0 -26 -7 -54 -15z"/>
</g>
</svg>
